<svg xmlns="http://www.w3.org/2000/svg" width="100" height="100.009" viewBox="0 0 100 100.009">
    <defs>
        <style>
            .cls-2{fill:#fff}
        </style>
    </defs>
    <g id="logo" opacity="0.7" transform="translate(-276.661 -393.744)">
        <g id="그룹_7465" transform="translate(276.661 393.744)">
            <g id="그룹_7464">
                <g id="그룹_7463">
                    <g id="그룹_7462">
                        <g id="그룹_7460" transform="translate(24.541 22.182)">
                            <path id="패스_17555" d="M302.259 413.574v-5.46H298.8a3.874 3.874 0 0 1-.847 1.439 6.115 6.115 0 0 1-1.325 1.07 10.8 10.8 0 0 1-1.628.777c-.592.211-1.168.388-1.741.536l-.868-1.068c.634-.172 1.256-.385 1.862-.6a7.9 7.9 0 0 0 1.618-.8 4.125 4.125 0 0 0 1.137-1.091 2.776 2.776 0 0 0 .409-1.513v-.88a1.489 1.489 0 0 0-.158-.8c-.1-.151-.351-.221-.736-.221h-3.61v-1.353h3.909a4.4 4.4 0 0 1 1 .1 1.41 1.41 0 0 1 .673.337 1.279 1.279 0 0 1 .385.636 3.54 3.54 0 0 1 .13 1.035v1.024h3.247v-3.584h1.6v9.542a1.3 1.3 0 0 1-.137.678.658.658 0 0 1-.566.2zm-5.926 3.942a1.133 1.133 0 0 1-.868-.337 1.182 1.182 0 0 1-.327-.864v-3.638h1.581v3.176c0 .19.065.286.181.286h7.308v.754a.672.672 0 0 1-.146.46.636.636 0 0 1-.485.162z" class="cls-2" transform="translate(-279.909 -403.156)"/>
                            <path id="패스_17556" d="M304.389 406.5a3.884 3.884 0 0 1-.457 1.936 4.544 4.544 0 0 1-1.24 1.416 7.908 7.908 0 0 1-1.8 1 18.794 18.794 0 0 1-2.177.692l-.877-1.07c.617-.16 1.228-.351 1.827-.562a7.336 7.336 0 0 0 1.59-.773 3.814 3.814 0 0 0 1.13-1.079 2.646 2.646 0 0 0 .416-1.5v-.573a1.493 1.493 0 0 0-.156-.8c-.111-.151-.36-.221-.747-.221h-3.61v-1.353h3.912a4.239 4.239 0 0 1 .993.1 1.443 1.443 0 0 1 .682.337 1.36 1.36 0 0 1 .381.636 3.532 3.532 0 0 1 .132 1.035zm-4.308 8.292a2.429 2.429 0 0 1 .457-1.532 3.315 3.315 0 0 1 1.13-.947 5.168 5.168 0 0 1 1.465-.478 8.562 8.562 0 0 1 2.92 0 4.963 4.963 0 0 1 1.437.478 3.223 3.223 0 0 1 1.084.947 2.526 2.526 0 0 1 .441 1.532 2.449 2.449 0 0 1-.441 1.525 3.073 3.073 0 0 1-1.084.929 4.993 4.993 0 0 1-1.437.448 9.229 9.229 0 0 1-1.465.123 9.459 9.459 0 0 1-1.486-.123 5.056 5.056 0 0 1-1.465-.439 3.066 3.066 0 0 1-1.121-.924 2.485 2.485 0 0 1-.436-1.54zm1.586 0a1.168 1.168 0 0 0 .313.868 2.158 2.158 0 0 0 .757.515 3.794 3.794 0 0 0 .959.237c.341.035.634.06.894.06a8.736 8.736 0 0 0 .894-.06 4.078 4.078 0 0 0 .952-.232 1.986 1.986 0 0 0 .729-.515 1.2 1.2 0 0 0 .286-.873 1.284 1.284 0 0 0-.29-.884 2.114 2.114 0 0 0-.747-.527 3.89 3.89 0 0 0-.929-.26 6.365 6.365 0 0 0-.88-.065 6.782 6.782 0 0 0-.9.065 3.864 3.864 0 0 0-.959.26 2.048 2.048 0 0 0-.761.527 1.233 1.233 0 0 0-.319.883zm5.608-3.338v-8.3h1.595v3.106h1.964v1.365h-1.964v3a1.129 1.129 0 0 1-.144.634.665.665 0 0 1-.569.2z" class="cls-2" transform="translate(-272.712 -403.156)"/>
                            <path id="패스_17557" d="M287.014 421.1c.3-.1.6-.19.933-.306s.662-.23.98-.371a8.516 8.516 0 0 0 .912-.446 6.494 6.494 0 0 0 1.377-1.151 3.661 3.661 0 0 0 .5-.662 2.694 2.694 0 0 0 .341-.738 2.583 2.583 0 0 0 .125-.817v-2.479a1.132 1.132 0 0 0-.2-.773 1.179 1.179 0 0 0-.873-.228H287.4v-1.379h3.99a4.339 4.339 0 0 1 1.1.121 1.837 1.837 0 0 1 .738.392 1.619 1.619 0 0 1 .416.7 4 4 0 0 1 .125 1.045v2.584a4.42 4.42 0 0 1-.446 1.943 5.954 5.954 0 0 1-1.244 1.616 8.442 8.442 0 0 1-1.778 1.216 10.351 10.351 0 0 1-2.428.859zm9.842 4.227v-14.359h1.586v13.462a1.1 1.1 0 0 1-.169.7.777.777 0 0 1-.587.193z" class="cls-2" transform="translate(-287.014 -392.834)"/>
                            <path id="패스_17558" d="M292.231 417.558h13.137v.648c0 .483-.228.724-.673.724h-12.464zM294 422.8a2.228 2.228 0 0 1 .367-1.3 2.961 2.961 0 0 1 1.024-.924 5.362 5.362 0 0 1 1.532-.552 9.97 9.97 0 0 1 1.913-.181 8.457 8.457 0 0 1 1.832.2 5.138 5.138 0 0 1 1.511.555 2.828 2.828 0 0 1 1.042.926 2.276 2.276 0 0 1 .026 2.489 2.889 2.889 0 0 1-.993.9 5.188 5.188 0 0 1-1.507.573 9.024 9.024 0 0 1-1.91.19 9.357 9.357 0 0 1-1.848-.172 5.619 5.619 0 0 1-1.541-.52 3.1 3.1 0 0 1-1.063-.889A2.187 2.187 0 0 1 294 422.8zm1.5-6.456a1.674 1.674 0 0 1-1.093-.286 1.408 1.408 0 0 1-.323-1.1v-4.044h.729a.763.763 0 0 1 .631.311 1.213 1.213 0 0 1 .237.7v2.725a.61.61 0 0 0 .035.262c.026.049.081.07.181.07h7.814v.729a.639.639 0 0 1-.148.462.656.656 0 0 1-.508.174zm.121 6.456a1 1 0 0 0 .221.622 1.954 1.954 0 0 0 .657.476 4.5 4.5 0 0 0 1.019.306 7.328 7.328 0 0 0 1.316.111 7.118 7.118 0 0 0 1.284-.1 4.088 4.088 0 0 0 1-.316 1.827 1.827 0 0 0 .641-.476 1.024 1.024 0 0 0-.009-1.281 1.937 1.937 0 0 0-.662-.49 3.869 3.869 0 0 0-.989-.311 6.038 6.038 0 0 0-1.247-.121 5.478 5.478 0 0 0-2.389.425 1.279 1.279 0 0 0-.838 1.155z" class="cls-2" transform="translate(-280.121 -392.905)"/>
                            <path id="패스_17559" d="M302.856 413.96a2.554 2.554 0 0 0 .276 1.177 3.733 3.733 0 0 0 .78 1.014 6.936 6.936 0 0 0 1.144.875c.432.274.887.536 1.37.787l-.9 1.033a7.8 7.8 0 0 1-.915-.5 11.553 11.553 0 0 1-.954-.657 9.4 9.4 0 0 1-.889-.722 7.415 7.415 0 0 1-.687-.72 10.245 10.245 0 0 1-1.4 1.507 10.027 10.027 0 0 1-2.043 1.4l-1.049-1.045a9.82 9.82 0 0 0 1.316-.771 7.847 7.847 0 0 0 1.165-.98 5.008 5.008 0 0 0 .836-1.154 2.678 2.678 0 0 0 .311-1.265v-2.776h1.031c.269 0 .427.065.492.186a.989.989 0 0 1 .114.5zm5.453 11.363v-3.645c0-.137-.06-.211-.193-.211h-7.157v-1.356h7.751a1.266 1.266 0 0 1 .857.276 1.019 1.019 0 0 1 .327.808v3.205a1.139 1.139 0 0 1-.176.727.732.732 0 0 1-.571.193zm.035-6v-8.357h1.59v7.407a1.357 1.357 0 0 1-.142.717.654.654 0 0 1-.6.232z" class="cls-2" transform="translate(-273.038 -392.834)"/>
                            <path id="패스_17560" d="M303.395 417.407h13.12v.648c0 .483-.218.724-.659.724h-5.1v1.4h3.944v3.121a2.2 2.2 0 0 1-.443 1.469 1.846 1.846 0 0 1-1.46.522h-6.187a1.345 1.345 0 0 1-.963-.39 1.559 1.559 0 0 1-.4-1.147v-3.568h3.932v-1.4h-5.785zm2.976-5.068h-1.632v-1.311h10.439v1.311h-1.634v2a3.087 3.087 0 0 1-.012.323c-.035.1-.056.209-.084.316h2.057v.6c0 .483-.232.724-.682.724h-10.344v-1.321h2c-.025-.1-.051-.2-.07-.311a1.574 1.574 0 0 1-.035-.353zm6.073 11.588a1.016 1.016 0 0 0 .511-.1c.123-.065.188-.211.188-.443v-1.854h-6.335v2.036c0 .241.109.362.332.362zm-.933-8.949c.186 0 .316-.051.367-.16a.815.815 0 0 0 .091-.471v-2.008h-4.025v2.027a.948.948 0 0 0 .1.453.391.391 0 0 0 .351.16z" class="cls-2" transform="translate(-265.369 -392.754)"/>
                        </g>
                        <path id="패스_17561" d="M354.923 413.966a4.3 4.3 0 0 1 .136 1.035c0 6.651-15.614 12.041-34.882 12.041S285.3 421.652 285.3 415a5.124 5.124 0 0 1 .122-1.035c-2.465 1.792-3.85 3.807-3.85 5.933 0 7.519 17.288 13.612 38.608 13.612s38.6-6.094 38.6-13.612c-.007-2.125-1.387-4.14-3.857-5.932z" class="cls-2" transform="translate(-270.176 -366.426)"/>
                        <g id="그룹_7461">
                            <path id="패스_17562" d="M302.806 427.85c-1.444 0-1.444 2.855 0 2.855 1.481 0 1.442-2.855 0-2.855z" class="cls-2" transform="translate(-242.937 -347.846)"/>
                            <path id="사각형_12004" d="M0 0H2.099V1.334H0z" class="cls-2" transform="translate(52.518 80.005)"/>
                            <path id="사각형_12005" d="M0 0H2.103V1.334H0z" class="cls-2" transform="translate(29.673 80.005)"/>
                            <path id="패스_17563" d="M296.32 427.85a1.268 1.268 0 0 0 0 2.526c1.499 0 1.494-2.526 0-2.526z" class="cls-2" transform="translate(-251.765 -347.848)"/>
                            <path id="사각형_12006" d="M0 0H3.744V1.166H0z" class="cls-2" transform="translate(51.698 84.964)"/>
                            <path id="패스_17564" d="M293.188 427.818c-1.481 0-1.481 3.593 0 3.593 1.512 0 1.512-3.593 0-3.593z" class="cls-2" transform="translate(-255.917 -347.882)"/>
                            <path id="패스_17565" d="M326.662 393.744a50 50 0 1 0 50 50.011 50.009 50.009 0 0 0-50-50.011zM296.2 476.391c1.029-.516 2.15-1.344 2.15-2.57v-.847h1.116v.842a3.21 3.21 0 0 0 2.148 2.6l-.415.765a5.607 5.607 0 0 1-2.338-1.717 4.673 4.673 0 0 1-2.244 1.717zm6.876 4.092h-1.116v-2.019h-4.9v-.764h6.017zm0-3.2h-1.116v-4.474h1.116zm7.678-.108h-2.814v.628h2.46v2.692h-6.02V477.8h2.453v-.628h-2.809v-.746h6.73zm-6.374-3.433v-.764h6.02v.764h-.844v1.346h.844v.76h-6.02v-.76h.832v-1.346zm13.948 6.744h-1.1v-1.018a3.707 3.707 0 0 1-1.679.263h-3.961v-.746h4.259a3.822 3.822 0 0 0 1.334-.239c.047-.049.047-5.938.047-5.938h1.1zm-4.39-7.61c3 0 3.03 5.157 0 5.157-3.016-.003-2.981-5.16-.002-5.16zm7.281.019a2.119 2.119 0 1 1 0 4.223 2.119 2.119 0 1 1-.002-4.226zm4.434 7.591h-1.1v-2.1h-4.9v-.746h6.008zm.884-5.907h-.884v.767h.884v.835h-.884v1.006h-1.1v-4.378h1.1v.938h.884zm7.063 2.6h-2.814v.628h2.453v2.692h-6.019V477.8h2.458v-.628h-2.819v-.746h6.74zm-6.379-3.433v-.764h6.017v.764h-.838v1.346h.842v.76h-6.022v-.76h.835v-1.346zm9.307-.847c2.952 0 2.945 4.549 0 4.549-2.955-.007-2.91-4.556 0-4.556zm4.437 7.591h-5.82v-2.43h1.112v1.667h4.709zm.79-4.882h-.877v2.779h-1.1v-5.574h1.1v1.944h.877zm.117 1.1c1.034-.553 2.15-1.292 2.15-2.575v-.382h-1.728v-.764h4.528v.764h-1.691v.375c0 1.189 1.121 2.111 2.146 2.6l-.406.776a5.506 5.506 0 0 1-2.3-1.653 6.27 6.27 0 0 1-2.293 1.663zm4.65-1.36v-.76h1.109v-1.771h1.107v5.483h-1.107v-2.962zm2.307 5.147h-5.912v-2.526h1.008v1.771h4.9zm5.328-.689A5.578 5.578 0 0 1 352.1 478a5.291 5.291 0 0 1-2.057 1.789l-.436-.755a3.509 3.509 0 0 0 1.935-3.224v-1.749h-1.466v-.755h1.466v-.68h1.116v.68h1.487v.755h-1.487v1.759a3.552 3.552 0 0 0 1.932 3.215zm2.1.689h-1.1v-4.39h-1.3v-.757h1.3V472.8h1.1zm-68.93-11.845a46.545 46.545 0 1 1 78.662 0z" class="cls-2" transform="translate(-276.661 -393.744)"/>
                            <path id="사각형_12007" d="M0 0H3.744V1.166H0z" class="cls-2" transform="translate(28.849 84.964)"/>
                        </g>
                    </g>
                </g>
            </g>
        </g>
    </g>
</svg>