<?xml version="1.0" encoding="utf-8"?>
<!-- Generator: Adobe Illustrator 25.0.1, SVG Export Plug-In . SVG Version: 6.00 Build 0)  -->
<svg version="1.1" id="ico_ko" xmlns="http://www.w3.org/2000/svg" xmlns:xlink="http://www.w3.org/1999/xlink" x="0px" y="0px"
	 viewBox="0 0 16 16" style="enable-background:new 0 0 16 16;" xml:space="preserve">
<style type="text/css">
	.st0{fill:none;}
	.st1{fill:#666666;}
</style>
<g id="타원_1164">
	<circle class="st0" cx="8" cy="8" r="8"/>
	<path class="st1" d="M8,16c-4.4,0-8-3.6-8-8s3.6-8,8-8s8,3.6,8,8S12.4,16,8,16z M8,1C4.1,1,1,4.1,1,8c0,3.9,3.1,7,7,7
		c3.9,0,7-3.1,7-7C15,4.1,11.9,1,8,1z"/>
</g>
<g id="그룹_2483" transform="translate(-1766 -36.062)">
	<rect x="1767.1" y="46.6" class="st1" width="13.8" height="1"/>
	<rect x="1767.1" y="41.6" class="st1" width="13.8" height="1"/>
</g>
<g id="타원_1165" transform="translate(5)">
	<ellipse class="st0" cx="3" cy="8" rx="3" ry="8"/>
	<path class="st1" d="M3,16c-2,0-3-4-3-8s1-8,3-8s3,4,3,8S5,16,3,16z M3,1C2.2,1,1,3.7,1,8c0,4.3,1.2,7,2,7s2-2.7,2-7
		C5,3.7,3.8,1,3,1z"/>
</g>
</svg>
