<!-- Generator: Adobe Illustrator 25.0.1, SVG Export Plug-In  -->
<svg version="1.1" xmlns="http://www.w3.org/2000/svg" xmlns:xlink="http://www.w3.org/1999/xlink" x="0px" y="0px" width="23.8px"
     height="23.8px" viewBox="0 0 23.8 23.8" style="overflow:visible;enable-background:new 0 0 23.8 23.8;" xml:space="preserve">
<defs>
</defs>
    <g id="ico_1_" transform="translate(.065 .059)">
	<path d="M9.9,19.9c-5.5,0-10-4.5-10-10s4.5-10,10-10s10,4.5,10,10S15.4,19.9,9.9,19.9z M9.9,1.9c-4.4,0-8,3.6-8,8c0,4.4,3.6,8,8,8
		s8-3.6,8-8C17.9,5.5,14.3,1.9,9.9,1.9z"/>
        <rect x="18.5" y="14.5" transform="matrix(0.7071 -0.7071 0.7071 0.7071 -8.0679 19.4704)" width="2" height="10"/>
</g>
</svg>
